<?xml version="1.0" encoding="UTF-8" standalone="no"?>
<!-- Generator: Adobe Illustrator 18.0.0, SVG Export Plug-In . SVG Version: 6.00 Build 0)  -->

<svg
   xmlns:dc="http://purl.org/dc/elements/1.1/"
   xmlns:cc="http://creativecommons.org/ns#"
   xmlns:rdf="http://www.w3.org/1999/02/22-rdf-syntax-ns#"
   xmlns:svg="http://www.w3.org/2000/svg"
   xmlns="http://www.w3.org/2000/svg"
   xmlns:sodipodi="http://sodipodi.sourceforge.net/DTD/sodipodi-0.dtd"
   xmlns:inkscape="http://www.inkscape.org/namespaces/inkscape"
   version="1.1"
   id="Capa_1"
   x="0px"
   y="0px"
   viewBox="0 0 376 376"
   style="enable-background:new 0 0 376 376;"
   xml:space="preserve"
   sodipodi:docname="bar.svg"
   inkscape:version="0.92.3 (2405546, 2018-03-11)"><metadata
   id="metadata43"><rdf:RDF><cc:Work
       rdf:about=""><dc:format>image/svg+xml</dc:format><dc:type
         rdf:resource="http://purl.org/dc/dcmitype/StillImage" /><dc:title></dc:title></cc:Work></rdf:RDF></metadata><defs
   id="defs41" /><sodipodi:namedview
   pagecolor="#ffffff"
   bordercolor="#666666"
   borderopacity="1"
   objecttolerance="10"
   gridtolerance="10"
   guidetolerance="10"
   inkscape:pageopacity="0"
   inkscape:pageshadow="2"
   inkscape:window-width="1920"
   inkscape:window-height="1060"
   id="namedview39"
   showgrid="false"
   inkscape:zoom="1.7752894"
   inkscape:cx="177.26533"
   inkscape:cy="197.91957"
   inkscape:window-x="0"
   inkscape:window-y="0"
   inkscape:window-maximized="1"
   inkscape:current-layer="g6" />
<g
   id="g6">
	<path
   d="M 366,341 H 20 V 25 C 20,19.477 15.523,15 10,15 4.477,15 0,19.477 0,25 v 326 c 0,5.523 4.477,10 10,10 h 356 c 5.523,0 10,-4.477 10,-10 0,-5.523 -4.477,-10 -10,-10 z"
   id="path2"
   inkscape:connector-curvature="0" />
	<path
   d="m 48.378178,16.386178 c 0,-0.552 -0.448,-1 -1,-1 -0.552,0 -1,0.448 -1,1 v 16.245 c -2.487,0.018 -4.5,2.037 -4.5,4.528 v 63.438002 c 0,2.491 2.013,4.511 4.5,4.528 v 37.506 c -2.487,0.018 -4.5,2.037 -4.5,4.528 v 63.438 c 0,2.491 2.013,4.511 4.5,4.528 v 37.506 c -2.487,0.018 -4.5,2.037 -4.5,4.528 v 63.438 c 0,2.491 2.013,4.511 4.5,4.528 v 8.745 c 0,0.552 0.448,1 1,1 0.552,0 1,-0.448 1,-1 v -8.742 h 58.000002 v 8.742 c 0,0.552 0.448,1 1,1 0.552,0 1,-0.448 1,-1 v -8.742 h 58 v 8.742 c 0,0.552 0.448,1 1,1 0.552,0 1,-0.448 1,-1 v -8.742 h 32.094 c 2.502,0 4.531,-2.029 4.531,-4.531 v -63.438 c 0,-2.502 -2.029,-4.531 -4.531,-4.531 h -32.094 v -37.5 h 58 v 118.742 c 0,0.552 0.448,1 1,1 0.552,0 1,-0.448 1,-1 v -118.742 h 58 v 118.742 c 0,0.552 0.448,1 1,1 0.552,0 1,-0.448 1,-1 v -118.742 h 22.094 c 2.502,0 4.531,-2.029 4.531,-4.531 v -63.438 c 0,-2.502 -2.029,-4.531 -4.531,-4.531 h -22.094 V 16.386178 c 0,-0.552 -0.448,-1 -1,-1 -0.552,0 -1,0.448 -1,1 v 88.469292 37.77271 h -58 V 16.386178 c 0,-0.552 -0.448,-1 -1,-1 -0.552,0 -1,0.448 -1,1 V 142.62818 h -58 v -37.5 h 32.094 c 2.502,0 4.531,-2.029 4.531,-4.531 V 37.159178 c 0,-2.502 -2.029,-4.531 -4.531,-4.531 h -32.094 v -16.242 c 0,-0.552 -0.448,-1 -1,-1 -0.552,0 -1,0.448 -1,1 v 16.242 h -58 v -16.242 c 0,-0.552 -0.448,-1 -1,-1 -0.552,0 -1,0.448 -1,1 v 16.242 H 48.378178 Z m 0,236.242002 v -37.5 h 58.000002 v 37.5 z m 118.000002,0 h -58 v -37.5 h 58 z m 0,-147.5 v 37.5 h -58 v -37.5 z m -60,0 v 37.5 H 48.378178 v -37.5 z"
   id="path4"
   inkscape:connector-curvature="0"
   sodipodi:nodetypes="ssscssccssccsscsssccsssccssscsssscccsssccssscsssscssscccssscccsssscsssccsssccscccccccccccccccccccc" />
</g>
<g
   id="g8">
</g>
<g
   id="g10">
</g>
<g
   id="g12">
</g>
<g
   id="g14">
</g>
<g
   id="g16">
</g>
<g
   id="g18">
</g>
<g
   id="g20">
</g>
<g
   id="g22">
</g>
<g
   id="g24">
</g>
<g
   id="g26">
</g>
<g
   id="g28">
</g>
<g
   id="g30">
</g>
<g
   id="g32">
</g>
<g
   id="g34">
</g>
<g
   id="g36">
</g>
</svg>