<?xml version="1.0" encoding="iso-8859-1"?>
<!-- Generator: Adobe Illustrator 16.0.0, SVG Export Plug-In . SVG Version: 6.00 Build 0)  -->
<!DOCTYPE svg PUBLIC "-//W3C//DTD SVG 1.1//EN" "http://www.w3.org/Graphics/SVG/1.1/DTD/svg11.dtd">
<svg version="1.1" id="Capa_1" xmlns="http://www.w3.org/2000/svg" xmlns:xlink="http://www.w3.org/1999/xlink" x="0px" y="0px"
	 width="96.168px" height="96.168px" viewBox="0 0 96.168 96.168" style="enable-background:new 0 0 96.168 96.168;"
	 xml:space="preserve">
<g>
	<g>
		<polygon points="3,46.584 3,3.796 0,3.796 0,92.372 3,92.372 3,49.584 96.168,49.584 96.168,46.584 		"/>
		<rect x="5.167" y="8.18" width="5.667" height="2.475"/>
		<rect x="5.167" y="21.514" width="5.667" height="2.475"/>
		<rect x="5.167" y="34.908" width="5.667" height="2.475"/>
		<rect x="5.167" y="56.743" width="5.667" height="2.475"/>
		<rect x="5.167" y="70.077" width="5.667" height="2.475"/>
		<rect x="5.167" y="83.472" width="5.667" height="2.475"/>
		<polygon points="69.066,65.358 66.406,69.135 62.21,61.959 54.988,68.657 52.093,62.153 39.823,64.442 31.917,59.922 
			23.975,62.181 20.487,59.896 15.199,62.26 15.567,63.081 20.404,60.919 23.825,63.16 31.799,60.894 39.663,65.39 51.561,63.169 
			54.677,70.176 61.999,63.382 65.836,69.944 62.212,75.089 48.474,68.332 40.896,79.032 31.037,69.621 19.014,82.106 
			19.663,82.731 31.064,70.894 41.027,80.401 48.766,69.479 62.506,76.237 66.336,70.801 66.887,71.742 71.98,71.742 74.633,68.698 
			84.59,72.657 84.923,71.819 74.373,67.627 71.57,70.842 67.404,70.842 66.906,69.991 69.615,66.147 79.693,63.517 88.582,66.185 
			88.841,65.319 79.711,62.583 		"/>
		<polygon points="23.077,20.53 24.08,21.188 20.155,25.263 20.805,25.888 24.848,21.689 26.498,22.772 34.472,20.504 
			42.336,25.001 54.232,22.78 57.35,29.787 64.672,22.993 69.561,31.354 74.654,31.354 77.307,28.31 87.264,32.269 87.596,31.431 
			77.046,27.238 74.244,30.453 70.077,30.453 64.883,21.57 57.661,28.269 54.766,21.766 42.496,24.054 34.59,19.533 26.647,21.792 
			25.483,21.029 32.206,14.049 42.169,23.558 49.907,12.635 63.646,19.393 70.757,9.302 80.835,6.672 89.725,9.34 89.982,8.476 
			80.854,5.738 70.209,8.514 63.354,18.244 49.615,11.487 42.037,22.188 32.179,12.776 24.716,20.526 23.16,19.507 17.872,21.871 
			18.24,22.692 		"/>
	</g>
</g>
<g>
</g>
<g>
</g>
<g>
</g>
<g>
</g>
<g>
</g>
<g>
</g>
<g>
</g>
<g>
</g>
<g>
</g>
<g>
</g>
<g>
</g>
<g>
</g>
<g>
</g>
<g>
</g>
<g>
</g>
</svg>
