<?xml version="1.0" encoding="UTF-8" standalone="no"?>
<!-- Created with Inkscape (http://www.inkscape.org/) -->

<svg
   xmlns:dc="http://purl.org/dc/elements/1.1/"
   xmlns:cc="http://creativecommons.org/ns#"
   xmlns:rdf="http://www.w3.org/1999/02/22-rdf-syntax-ns#"
   xmlns:svg="http://www.w3.org/2000/svg"
   xmlns="http://www.w3.org/2000/svg"
   xmlns:sodipodi="http://sodipodi.sourceforge.net/DTD/sodipodi-0.dtd"
   xmlns:inkscape="http://www.inkscape.org/namespaces/inkscape"
   version="1.1"
   id="svg2"
   xml:space="preserve"
   width="144.13161"
   height="137.8"
   viewBox="0 0 144.13161 137.8"
   sodipodi:docname="icon.svg"
   inkscape:version="0.92.4 5da689c313, 2019-01-14"><metadata
     id="metadata8"><rdf:RDF><cc:Work
         rdf:about=""><dc:format>image/svg+xml</dc:format><dc:type
           rdf:resource="http://purl.org/dc/dcmitype/StillImage" /><dc:title></dc:title></cc:Work></rdf:RDF></metadata><defs
     id="defs6"><clipPath
       clipPathUnits="userSpaceOnUse"
       id="clipPath18"><path
         d="M 0,595.28 H 841.89 V 0 H 0 Z"
         id="path16"
         inkscape:connector-curvature="0" /></clipPath><clipPath
       clipPathUnits="userSpaceOnUse"
       id="clipPath98"><path
         d="M 0,595.28 H 841.89 V 0 H 0 Z"
         id="path96"
         inkscape:connector-curvature="0" /></clipPath><clipPath
       clipPathUnits="userSpaceOnUse"
       id="clipPath162"><path
         d="M 0,595.28 H 841.89 V 0 H 0 Z"
         id="path160"
         inkscape:connector-curvature="0" /></clipPath></defs><sodipodi:namedview
     pagecolor="#ffffff"
     bordercolor="#666666"
     borderopacity="1"
     objecttolerance="10"
     gridtolerance="10"
     guidetolerance="10"
     inkscape:pageopacity="0"
     inkscape:pageshadow="2"
     inkscape:window-width="1278"
     inkscape:window-height="1402"
     id="namedview4"
     showgrid="false"
     inkscape:zoom="3.3640075"
     inkscape:cx="39.761221"
     inkscape:cy="143.50824"
     inkscape:window-x="1280"
     inkscape:window-y="18"
     inkscape:window-maximized="0"
     inkscape:current-layer="g10"
     fit-margin-top="0"
     fit-margin-left="0"
     fit-margin-right="0"
     fit-margin-bottom="0" /><g
     id="g10"
     inkscape:groupmode="layer"
     inkscape:label="Logo MoI"
     transform="matrix(1.3333333,0,0,-1.3333333,-89.215584,685.5579)"><path
       inkscape:connector-curvature="0"
       id="path210"
       style="fill:none;stroke:#ffffff;stroke-width:5;stroke-linecap:butt;stroke-linejoin:miter;stroke-miterlimit:10;stroke-dasharray:none;stroke-opacity:1"
       d="m 93.69519,440.89284 v 21.503" /><path
       inkscape:connector-curvature="0"
       id="path214"
       style="fill:none;stroke:#ffffff;stroke-width:5;stroke-linecap:butt;stroke-linejoin:miter;stroke-miterlimit:10;stroke-dasharray:none;stroke-opacity:1"
       d="m 120.28109,457.14184 -17.146,12.365 -17.146,-12.365" /><path
       inkscape:connector-curvature="0"
       id="path218"
       style="fill:none;stroke:#ffffff;stroke-width:5;stroke-linecap:butt;stroke-linejoin:miter;stroke-miterlimit:10;stroke-dasharray:none;stroke-opacity:1"
       d="m 111.93979,464.51684 16.731,12.065 22.51499,-16.236" /><path
       inkscape:connector-curvature="0"
       id="path222"
       style="fill:none;stroke:#ffffff;stroke-width:5;stroke-linecap:butt;stroke-linejoin:miter;stroke-miterlimit:10;stroke-dasharray:none;stroke-opacity:1"
       d="m 140.32849,440.89284 v 27.283" /><path
       inkscape:connector-curvature="0"
       id="path226"
       style="fill:none;stroke:#ffffff;stroke-width:5;stroke-linecap:butt;stroke-linejoin:miter;stroke-miterlimit:10;stroke-dasharray:none;stroke-opacity:1"
       d="m 93.13369,420.40943 c 7.425,-4.5 16.137,-7.09099 25.454,-7.09099 19.176,0 35.789,10.977 43.89801,26.99 -1.60601,1.266 -3.327,2.505 -6.422,2.505 -6.32201,0 -7.35001,-5.171 -12.49601,-5.171 -5.145,0 -4.998,5.171 -11.761,5.171 -6.763,0 -7.939,-5.171 -12.497,-5.171 -5.586,0 -6.174,5.171 -12.496,5.171 -6.322,0 -7.35,-5.171 -12.496,-5.171 -5.145,0 -4.998,5.171 -11.761,5.171 -1.807,0 -3.215,-0.369 -4.396,-0.91 l -3.59,-1.359 c -3.301,6.606 -5.159,14.06 -5.159,21.949 0,27.158 22.017,49.175 49.176,49.175 24.534,0 44.872,-17.968 48.57301,-41.462" /><path
       inkscape:connector-curvature="0"
       id="path230"
       style="fill:#ffffff;fill-opacity:1;fill-rule:nonzero;stroke:none;stroke-width:0.99999994"
       d="m 90.24839,412.57834 -6.433,15.14299 16.331,-1.99699 z" /><path
       inkscape:connector-curvature="0"
       id="path234"
       style="fill:#ffffff;fill-opacity:1;fill-rule:nonzero;stroke:none;stroke-width:0.99999994"
       d="m 158.58139,472.12234 9.00901,-13.768 7.42,14.685 z" /><path
       inkscape:connector-curvature="0"
       id="path238"
       style="fill:none;stroke:#ffffff;stroke-width:1.5;stroke-linecap:butt;stroke-linejoin:miter;stroke-miterlimit:10;stroke-dasharray:none;stroke-opacity:1"
       d="m 76.25179,444.65554 0.662,0.251 c 1.739,0.778 3.587,1.157 5.643,1.157 4.858,0 7.225,-2.129 8.954,-3.682 1.258,-1.131 1.708,-1.489 2.806,-1.489 1.28,0 2.061,0.557 3.569,1.714 1.899,1.459 4.501,3.457 8.928,3.457 4.389,0 6.876,-1.97 8.693,-3.407 1.504,-1.19 2.294,-1.764 3.804,-1.764 0.868,0 1.497,0.42 2.943,1.533 1.998,1.535 4.734,3.638 9.553,3.638 4.858,0 7.225,-2.129 8.954,-3.682 1.258,-1.131 1.708,-1.489 2.806,-1.489 1.27999,0 2.061,0.557 3.56899,1.714 1.899,1.459 4.50101,3.457 8.92801,3.457 4.37001,0 6.91401,-2.005 8.433,-3.202 l 2.09001,-1.646" /></g></svg>