<?xml version="1.0" encoding="UTF-8" standalone="no"?>
<!-- Created with Inkscape (http://www.inkscape.org/) -->

<svg
   xmlns:dc="http://purl.org/dc/elements/1.1/"
   xmlns:cc="http://creativecommons.org/ns#"
   xmlns:rdf="http://www.w3.org/1999/02/22-rdf-syntax-ns#"
   xmlns:svg="http://www.w3.org/2000/svg"
   xmlns="http://www.w3.org/2000/svg"
   xmlns:sodipodi="http://sodipodi.sourceforge.net/DTD/sodipodi-0.dtd"
   xmlns:inkscape="http://www.inkscape.org/namespaces/inkscape"
   version="1.1"
   id="svg2"
   xml:space="preserve"
   width="418.23132"
   height="137.8"
   viewBox="0 0 418.23132 137.8"
   sodipodi:docname="logo.svg"
   inkscape:version="0.92.4 5da689c313, 2019-01-14"><metadata
     id="metadata8"><rdf:RDF><cc:Work
         rdf:about=""><dc:format>image/svg+xml</dc:format><dc:type
           rdf:resource="http://purl.org/dc/dcmitype/StillImage" /><dc:title></dc:title></cc:Work></rdf:RDF></metadata><defs
     id="defs6"><clipPath
       clipPathUnits="userSpaceOnUse"
       id="clipPath18"><path
         d="M 0,595.28 H 841.89 V 0 H 0 Z"
         id="path16"
         inkscape:connector-curvature="0" /></clipPath><clipPath
       clipPathUnits="userSpaceOnUse"
       id="clipPath98"><path
         d="M 0,595.28 H 841.89 V 0 H 0 Z"
         id="path96"
         inkscape:connector-curvature="0" /></clipPath><clipPath
       clipPathUnits="userSpaceOnUse"
       id="clipPath162"><path
         d="M 0,595.28 H 841.89 V 0 H 0 Z"
         id="path160"
         inkscape:connector-curvature="0" /></clipPath></defs><sodipodi:namedview
     pagecolor="#ffffff"
     bordercolor="#666666"
     borderopacity="1"
     objecttolerance="10"
     gridtolerance="10"
     guidetolerance="10"
     inkscape:pageopacity="0"
     inkscape:pageshadow="2"
     inkscape:window-width="1278"
     inkscape:window-height="1402"
     id="namedview4"
     showgrid="false"
     inkscape:zoom="0.84100188"
     inkscape:cx="243.47409"
     inkscape:cy="267.14386"
     inkscape:window-x="1280"
     inkscape:window-y="18"
     inkscape:window-maximized="0"
     inkscape:current-layer="g10"
     fit-margin-top="0"
     fit-margin-left="0"
     fit-margin-right="0"
     fit-margin-bottom="0" /><g
     id="g10"
     inkscape:groupmode="layer"
     inkscape:label="Logo MoI"
     transform="matrix(1.3333333,0,0,-1.3333333,-16.216313,773.48283)"><text
   y="-534.38361"
   x="133.13173"
   style="font-variant:normal;font-weight:bold;font-stretch:normal;font-size:28.99999809px;font-family:Arial;-inkscape-font-specification:Arial-BoldMT;writing-mode:lr-tb;fill:#231f20;fill-opacity:1;fill-rule:nonzero;stroke:none;stroke-width:0.99999994"
   id="text142"
   transform="scale(1,-1)"><tspan
     style="stroke-width:0.99999994;-inkscape-font-specification:'Ubuntu Bold';font-family:Ubuntu;font-weight:bold;font-style:normal;font-stretch:normal;font-variant:normal"
     x="133.13173 157.28871 176.63173 192.19313 213.13112 234.06911 256.63113 274.35013 282.41214 301.75513"
     y="-534.38361"
     sodipodi:role="line"
     id="tspan140">METABOLISM</tspan></text>

<text
   y="-501.38364"
   x="133.13173"
   style="font-variant:normal;font-weight:bold;font-stretch:normal;font-size:31.99999809px;font-family:Arial;-inkscape-font-specification:Arial-BoldMT;writing-mode:lr-tb;fill:#231f20;fill-opacity:1;fill-rule:nonzero;stroke:none;stroke-width:0.99999994"
   id="text146"
   transform="scale(1,-1)"><tspan
     style="stroke-width:0.99999994;-inkscape-font-specification:'Ubuntu Bold';font-family:Ubuntu;font-weight:bold;font-style:normal;font-stretch:normal;font-variant:normal"
     x="133.13173 158.02773 177.57973 186.47572 195.37172 216.71574 236.26775 259.37173 282.47574 305.57974"
     y="-501.38364"
     sodipodi:role="line"
     id="tspan144">OF <tspan
   style="fill:#9175a7;fill-opacity:1;-inkscape-font-specification:'Ubuntu Bold';font-family:Ubuntu;font-weight:bold;font-style:normal;font-stretch:normal;font-variant:normal"
   id="tspan1388">ISLANDS</tspan></tspan></text>

<path
   inkscape:connector-curvature="0"
   id="path210"
   style="fill:none;stroke:#9175a7;stroke-width:5;stroke-linecap:butt;stroke-linejoin:miter;stroke-miterlimit:10;stroke-dasharray:none;stroke-opacity:1"
   d="m 38.945735,506.83654 v 21.503" /><path
   inkscape:connector-curvature="0"
   id="path214"
   style="fill:none;stroke:#9175a7;stroke-width:5;stroke-linecap:butt;stroke-linejoin:miter;stroke-miterlimit:10;stroke-dasharray:none;stroke-opacity:1"
   d="m 65.531635,523.08554 -17.146,12.365 -17.146,-12.365" /><path
   inkscape:connector-curvature="0"
   id="path218"
   style="fill:none;stroke:#9175a7;stroke-width:5;stroke-linecap:butt;stroke-linejoin:miter;stroke-miterlimit:10;stroke-dasharray:none;stroke-opacity:1"
   d="m 57.190335,530.46054 16.731,12.065 22.514993,-16.236" /><path
   inkscape:connector-curvature="0"
   id="path222"
   style="fill:none;stroke:#9175a7;stroke-width:5;stroke-linecap:butt;stroke-linejoin:miter;stroke-miterlimit:10;stroke-dasharray:none;stroke-opacity:1"
   d="m 85.579035,506.83654 v 27.283" /><path
   inkscape:connector-curvature="0"
   id="path226"
   style="fill:none;stroke:#9175a7;stroke-width:5;stroke-linecap:butt;stroke-linejoin:miter;stroke-miterlimit:10;stroke-dasharray:none;stroke-opacity:1"
   d="m 38.384235,486.35314 c 7.425,-4.50001 16.137,-7.091 25.454,-7.091 19.176,0 35.789003,10.977 43.898005,26.99 -1.60601,1.266 -3.327,2.505 -6.422,2.505 -6.322002,0 -7.350002,-5.171 -12.496005,-5.171 -5.145,0 -4.998,5.171 -11.761,5.171 -6.763,0 -7.939,-5.171 -12.497,-5.171 -5.586,0 -6.174,5.171 -12.496,5.171 -6.322,0 -7.35,-5.171 -12.496,-5.171 -5.145,0 -4.998,5.171 -11.761,5.171 -1.807,0 -3.215,-0.369 -4.396,-0.91 l -3.59,-1.359 c -3.301,6.606 -5.159,14.06 -5.159,21.949 0,27.158 22.017,49.175 49.176,49.175 24.534,0 44.871995,-17.968 48.573005,-41.462" /><path
   inkscape:connector-curvature="0"
   id="path230"
   style="fill:#9175a7;fill-opacity:1;fill-rule:nonzero;stroke:none;stroke-width:0.99999994"
   d="m 35.498935,478.52204 -6.433,15.143 16.331,-1.997 z" /><path
   inkscape:connector-curvature="0"
   id="path234"
   style="fill:#9175a7;fill-opacity:1;fill-rule:nonzero;stroke:none;stroke-width:0.99999994"
   d="m 103.83193,538.06604 9.00901,-13.768 7.42,14.685 z" /><path
   inkscape:connector-curvature="0"
   id="path238"
   style="fill:none;stroke:#ffffff;stroke-width:1.5;stroke-linecap:butt;stroke-linejoin:miter;stroke-miterlimit:10;stroke-dasharray:none;stroke-opacity:1"
   d="m 21.502335,510.59924 0.662,0.251 c 1.739,0.778 3.587,1.157 5.643,1.157 4.858,0 7.225,-2.129 8.954,-3.682 1.258,-1.131 1.708,-1.489 2.806,-1.489 1.28,0 2.061,0.557 3.569,1.714 1.899,1.459 4.501,3.457 8.928,3.457 4.389,0 6.876,-1.97 8.693,-3.407 1.504,-1.19 2.294,-1.764 3.804,-1.764 0.868,0 1.497,0.42 2.943,1.533 1.998,1.535 4.734,3.638 9.553,3.638 4.858,0 7.225,-2.129 8.954,-3.682 1.258,-1.131 1.708,-1.489 2.806,-1.489 1.27999,0 2.061,0.557 3.56899,1.714 1.899003,1.459 4.501013,3.457 8.928005,3.457 4.37001,0 6.91401,-2.005 8.433,-3.202 l 2.09001,-1.646" /></g></svg>