<?xml version="1.0" encoding="iso-8859-1"?>
<!-- Generator: Adobe Illustrator 19.0.0, SVG Export Plug-In . SVG Version: 6.00 Build 0)  -->
<svg version="1.1" id="Capa_1" xmlns="http://www.w3.org/2000/svg" xmlns:xlink="http://www.w3.org/1999/xlink" x="0px" y="0px"
	 viewBox="0 0 512 512" style="enable-background:new 0 0 512 512;" xml:space="preserve">
<polyline style="fill:#FF8951;" points="237.272,305.737 220.163,84.892 196.978,84.892 179.154,314.965 "/>
<path style="fill:#4CE0A1;" d="M266.966,56.718l57.812-35.957l-0.002-0.001h0.001C300.82,6.63,270.018,5.976,244.766,21.682
	c-25.252,15.707-38.279,43.62-36.196,71.355c0,0,0,0,0.001-0.002c0,0.001,0,0.002,0,0.002c0.001-0.001,0.002-0.002,0.002-0.002"/>
<path style="fill:#18BB7D;" d="M277.161,97.979l67.907,4.892c-11.075-25.515-35.611-44.149-65.272-46.286
	c-29.661-2.137-56.605,12.789-71.223,36.451c-0.001,0.001-0.001,0.002-0.002,0.002"/>
<g>
	<path style="fill:#4CE0A1;" d="M287.619,105.411c-22.742-19.163-53.314-22.926-79.049-12.374l104.649,88.185
		C319.256,154.072,310.36,124.575,287.619,105.411z"/>
	<path style="fill:#4CE0A1;" d="M208.134,93.036c0.001,0.001,0.001,0.001,0.002,0.002l0,0c0-0.001,0-0.002,0-0.002
		c0.001,0.001,0.001,0.002,0.001,0.002c2.083-27.735-10.943-55.648-36.196-71.355S115.887,6.63,91.93,20.761h0.001
		c-0.001,0-0.002,0.001-0.002,0.001l57.812,35.957"/>
</g>
<path style="fill:#18BB7D;" d="M208.136,93.038c-0.001-0.001-0.001-0.002-0.002-0.002c-14.618-23.662-41.561-38.588-71.222-36.451
	c-29.662,2.137-54.197,20.771-65.273,46.286l67.907-4.892"/>
<path style="fill:#4CE0A1;" d="M129.087,105.411c22.742-19.163,53.314-22.926,79.049-12.374l-104.649,88.185
	C97.45,154.072,106.346,124.575,129.087,105.411z"/>
<circle style="fill:#FDD365;" cx="418.861" cy="210.146" r="38.664"/>
<path d="M418.865,258.808c-26.833,0-48.663-21.831-48.663-48.664s21.83-48.663,48.663-48.663c26.833,0,48.663,21.83,48.663,48.663
	S445.699,258.808,418.865,258.808z M418.865,181.48c-15.806,0-28.664,12.858-28.664,28.664s12.858,28.665,28.664,28.665
	s28.664-12.859,28.664-28.665S434.671,181.48,418.865,181.48z"/>
<path d="M418.865,149.203c-5.522,0-9.999-4.478-9.999-9.999v-12.177c0-5.522,4.478-9.999,9.999-9.999s9.999,4.478,9.999,9.999
	v12.177C428.865,144.727,424.388,149.203,418.865,149.203z"/>
<path d="M418.865,303.261c-5.522,0-9.999-4.478-9.999-9.999v-12.178c0-5.522,4.478-9.999,9.999-9.999s9.999,4.478,9.999,9.999
	v12.178C428.865,298.784,424.388,303.261,418.865,303.261z"/>
<path d="M501.982,220.144h-12.177c-5.522,0-9.999-4.477-9.999-9.999s4.478-9.999,9.999-9.999h12.177
	c5.522,0,9.999,4.477,9.999,9.999S507.505,220.144,501.982,220.144z"/>
<path d="M347.926,220.144h-12.177c-5.522,0-9.999-4.477-9.999-9.999s4.478-9.999,9.999-9.999h12.177
	c5.522,0,9.999,4.477,9.999,9.999S353.448,220.144,347.926,220.144z"/>
<path d="M475.653,163.356c-2.559,0-5.118-0.977-7.071-2.929c-3.905-3.905-3.905-10.236,0-14.142l9.748-9.748
	c3.906-3.904,10.235-3.904,14.142,0c3.905,3.905,3.905,10.236,0,14.142l-9.748,9.748C480.77,162.38,478.213,163.356,475.653,163.356
	z"/>
<path d="M352.33,286.681c-2.56,0-5.118-0.976-7.07-2.929c-3.906-3.905-3.906-10.235-0.001-14.141l9.747-9.748
	c3.904-3.906,10.236-3.907,14.141-0.001c3.906,3.905,3.906,10.235,0.001,14.141l-9.747,9.748
	C357.448,285.704,354.89,286.681,352.33,286.681z"/>
<path d="M485.401,286.681c-2.56,0-5.118-0.977-7.071-2.929l-9.748-9.748c-3.905-3.905-3.905-10.236,0-14.142
	c3.906-3.904,10.235-3.904,14.142,0l9.748,9.748c3.905,3.905,3.905,10.236,0,14.142
	C490.519,285.704,487.961,286.681,485.401,286.681z"/>
<path d="M362.077,163.356c-2.56,0-5.119-0.977-7.071-2.93l-9.747-9.748c-3.905-3.905-3.905-10.235,0.001-14.141
	c3.905-3.904,10.237-3.904,14.141,0.001l9.747,9.748c3.905,3.905,3.905,10.235-0.001,14.141
	C367.195,162.38,364.636,163.356,362.077,163.356z"/>
<path style="fill:#FCC595;" d="M255.998,305.178c-79.676,0-149.822,30.135-190.687,75.815h381.372
	C405.82,335.312,335.675,305.178,255.998,305.178z"/>
<rect x="10.018" y="403.724" style="fill:#B3FFF9;" width="491.968" height="98.274"/>
<path style="fill:#4BC6FF;" d="M501.982,348.109h-0.162c-6.972,13.338-20.938,22.442-37.031,22.442l0,0
	c-14.523,0-27.314-7.415-34.796-18.664c-1.557-2.341-4.152-3.778-6.963-3.778l0,0c-2.811,0-5.407,1.437-6.963,3.778
	c-7.482,11.249-20.273,18.664-34.796,18.664l0,0c-14.523,0-27.314-7.415-34.796-18.664c-1.557-2.341-4.152-3.778-6.963-3.778l0,0
	c-2.811,0-5.407,1.437-6.963,3.778c-7.482,11.249-20.273,18.664-34.796,18.664l0,0c-14.523,0-27.314-7.415-34.796-18.664
	c-1.557-2.341-4.152-3.778-6.963-3.778l0,0c-2.811,0-5.407,1.437-6.963,3.778c-7.482,11.249-20.273,18.664-34.796,18.664l0,0
	c-14.523,0-27.314-7.415-34.796-18.664c-1.557-2.341-4.152-3.778-6.963-3.778l0,0c-2.811,0-5.406,1.437-6.963,3.778
	c-7.482,11.249-20.273,18.664-34.796,18.664l0,0c-14.523,0-27.314-7.415-34.796-18.664c-1.557-2.341-4.152-3.778-6.963-3.778l0,0
	c-2.811,0-5.407,1.437-6.963,3.778c-7.482,11.249-20.273,18.664-34.796,18.664l0,0c-16.093,0-30.059-9.103-37.031-22.442h-0.162
	v55.619h491.968L501.982,348.109L501.982,348.109z"/>
<path d="M455.652,447.672h-93.615c-5.522,0-9.999-4.478-9.999-9.999c0-5.523,4.478-9.999,9.999-9.999h93.615
	c5.522,0,9.999,4.477,9.999,9.999C465.651,443.194,461.175,447.672,455.652,447.672z"/>
<path d="M405.845,476.856H312.23c-5.522,0-9.999-4.478-9.999-9.999c0-5.522,4.478-9.999,9.999-9.999h93.615
	c5.523,0,9.999,4.478,9.999,9.999C415.845,472.379,411.367,476.856,405.845,476.856z"/>
<path d="M501.982,338.108h-0.162c-3.723,0-7.138,2.068-8.861,5.368c-5.505,10.531-16.299,17.074-28.169,17.074
	c-10.659,0-20.555-5.31-26.468-14.201c-3.432-5.16-9.147-8.24-15.29-8.24c-3.037,0-5.969,0.753-8.571,2.138
	c-43.662-29.1-99.665-45.068-158.462-45.068c-3.127,0-6.246,0.046-9.355,0.136L233.48,127.105l73.296,61.765
	c1.83,1.543,4.12,2.354,6.445,2.354c1.073,0,2.154-0.173,3.201-0.526c3.313-1.12,5.801-3.89,6.56-7.304
	c5.81-26.134-0.625-52.934-16.907-73.307l38.275,2.757c0.241,0.017,0.482,0.025,0.721,0.025c3.227,0,6.275-1.562,8.156-4.218
	c2.021-2.854,2.406-6.556,1.014-9.764c-10.66-24.557-31.618-42.457-56.766-49.369l32.584-20.267c2.97-1.847,4.759-5.111,4.718-8.607
	c-0.041-3.498-1.906-6.72-4.919-8.495c-28.08-16.564-62.711-16.162-90.372,1.043c-13.445,8.362-24.055,19.958-31.131,33.399
	c-7.076-13.442-17.686-25.036-31.132-33.399c-27.64-17.192-62.232-17.606-90.299-1.086c-2.19,1.268-3.879,3.353-4.609,5.911
	c-1.227,4.293,0.542,8.879,4.334,11.236l32.585,20.267C94.085,56.431,73.129,74.33,62.467,98.888
	c-1.393,3.209-1.008,6.911,1.014,9.764c1.884,2.657,4.931,4.218,8.156,4.218c0.239,0,0.479-0.009,0.721-0.025l38.275-2.757
	c-16.283,20.374-22.717,47.173-16.907,73.307c0.759,3.414,3.247,6.184,6.561,7.304c1.046,0.354,2.127,0.526,3.2,0.526
	c2.325,0,4.615-0.811,6.445-2.354l73.761-62.157l-14.12,180.524c-26.229,7.62-50.617,18.735-72.033,33.01
	c-2.604-1.385-5.536-2.139-8.572-2.139c-6.143,0-11.858,3.081-15.29,8.24c-5.914,8.891-15.809,14.201-26.469,14.201
	c-11.87,0-22.664-6.543-28.168-17.074c-1.725-3.3-5.14-5.368-8.861-5.368h-0.162c-5.522,0-9.999,4.478-9.999,9.999v153.892
	c0,5.522,4.477,9.999,9.999,9.999h491.968c5.522,0,9.999-4.478,9.999-9.999V348.108
	C511.981,342.586,507.505,338.108,501.982,338.108z M399.824,354.575c-5.328,3.836-11.785,5.976-18.55,5.976
	c-10.659,0-20.556-5.31-26.469-14.201c-3.432-5.16-9.147-8.24-15.289-8.24c-6.144,0-11.858,3.081-15.29,8.24
	c-5.914,8.891-15.808,14.201-26.469,14.201c-10.659,0-20.555-5.31-26.47-14.204c-3.433-5.158-9.147-8.237-15.288-8.237
	c-6.141,0-11.855,3.08-15.29,8.24c-5.914,8.891-15.809,14.201-26.468,14.201c-10.66,0-20.556-5.31-26.469-14.201
	c-3.432-5.16-9.146-8.24-15.29-8.24c-6.143,0-11.857,3.081-15.288,8.239c-5.915,8.892-15.81,14.202-26.47,14.202
	c-6.766,0-13.222-2.139-18.55-5.976c39.877-25.465,90.527-39.397,143.825-39.397C309.292,315.178,359.945,329.111,399.824,354.575z
	 M199.556,180.354h17.26c0.259,0,0.515-0.01,0.769-0.029l2.624,33.539h-23.275L199.556,180.354z M229.672,97.744
	c18.302-2.284,36.961,3.06,51.504,15.314c14.545,12.257,22.972,29.744,23.83,48.168L229.672,97.744z M326.667,91.519l-46.511-3.351
	c-13.099-7.283-27.747-11.004-42.542-10.944c12.053-7.85,26.528-11.742,41.462-10.665C298.048,67.925,315.144,77.119,326.667,91.519
	z M250.046,30.172c16.153-10.045,35.388-12.656,53.175-7.778l-39.604,24.633c-14.876,1.811-28.912,7.407-40.844,16.147
	C227.91,49.737,237.334,38.08,250.046,30.172z M166.661,30.172c12.709,7.905,22.133,19.561,27.271,32.995
	c-11.934-8.743-25.972-14.341-40.852-16.147l-39.594-24.626C131.277,17.516,150.51,20.128,166.661,30.172z M137.63,66.559
	c3.685-0.267,7.341-0.231,10.939,0.092c0.154,0.018,0.308,0.033,0.462,0.044c10.822,1.047,21.113,4.696,30.065,10.529
	c-14.796-0.06-29.446,3.661-42.546,10.945L90.039,91.52C101.563,77.119,118.659,67.925,137.63,66.559z M135.532,113.058
	L135.532,113.058c14.544-12.254,33.203-17.597,51.504-15.314l-75.334,63.483C112.559,142.802,120.986,125.315,135.532,113.058z
	 M208.353,105.93l3.651,3.076l4.018,51.349H201.12l4.047-51.74L208.353,105.93z M195.371,233.862h26.403l4.903,62.653
	c-12.452,1.142-24.698,3.007-36.642,5.569L195.371,233.862z M20.013,372.859c8.014,4.946,17.377,7.69,27.193,7.69
	c16.576,0,32.012-7.871,41.758-21.174c9.746,13.302,25.183,21.174,41.758,21.174s32.012-7.87,41.758-21.174
	c9.746,13.302,25.183,21.174,41.759,21.174c16.577,0,32.014-7.872,41.758-21.175c9.745,13.303,25.182,21.175,41.758,21.175
	s32.013-7.87,41.759-21.174c9.746,13.302,25.183,21.174,41.758,21.174s32.012-7.87,41.758-21.174
	c9.746,13.302,25.183,21.174,41.759,21.174c9.815,0,19.179-2.744,27.192-7.69v20.869H20.015v-20.869H20.013z M491.983,492.001
	H20.013v-15.145h87.517c5.522,0,9.999-4.478,9.999-9.999c0-5.522-4.478-9.999-9.999-9.999H20.013v-43.131h471.97V492.001z"/>
<path d="M307.325,447.674c-0.65,0-1.311-0.07-1.96-0.2c-0.641-0.13-1.261-0.32-1.87-0.57c-0.601-0.25-1.181-0.56-1.73-0.92
	c-0.54-0.359-1.05-0.779-1.52-1.239c-0.46-0.46-0.87-0.971-1.24-1.52c-0.36-0.54-0.67-1.12-0.92-1.73
	c-0.25-0.601-0.44-1.23-0.57-1.87c-0.13-0.641-0.189-1.301-0.189-1.95c0-0.65,0.06-1.311,0.189-1.96c0.13-0.63,0.32-1.26,0.57-1.87
	c0.25-0.6,0.56-1.18,0.92-1.72c0.37-0.551,0.78-1.06,1.24-1.521c0.47-0.46,0.979-0.88,1.52-1.25c0.55-0.359,1.13-0.67,1.73-0.92
	c0.609-0.25,1.229-0.44,1.87-0.57c1.29-0.26,2.62-0.26,3.91,0c0.64,0.131,1.27,0.32,1.869,0.57c0.601,0.25,1.19,0.56,1.73,0.92
	c0.55,0.37,1.06,0.79,1.52,1.25s0.881,0.97,1.24,1.521c0.36,0.54,0.67,1.12,0.92,1.72c0.25,0.61,0.44,1.24,0.57,1.87
	c0.13,0.649,0.2,1.31,0.2,1.96c0,0.649-0.07,1.31-0.2,1.95s-0.32,1.27-0.57,1.87c-0.25,0.609-0.56,1.19-0.92,1.73
	c-0.359,0.55-0.78,1.061-1.24,1.52c-0.46,0.46-0.97,0.88-1.52,1.239c-0.54,0.36-1.12,0.67-1.73,0.92
	c-0.6,0.25-1.229,0.44-1.869,0.57C308.635,447.603,307.975,447.674,307.325,447.674z"/>
<path d="M267.324,447.672H65.677c-5.522,0-9.999-4.478-9.999-9.999c0-5.523,4.478-9.999,9.999-9.999h201.646
	c5.522,0,9.999,4.477,9.999,9.999C277.324,443.194,272.846,447.672,267.324,447.672z"/>
<g>
</g>
<g>
</g>
<g>
</g>
<g>
</g>
<g>
</g>
<g>
</g>
<g>
</g>
<g>
</g>
<g>
</g>
<g>
</g>
<g>
</g>
<g>
</g>
<g>
</g>
<g>
</g>
<g>
</g>
</svg>
