<?xml version="1.0" encoding="iso-8859-1"?>
<!-- Generator: Adobe Illustrator 19.0.0, SVG Export Plug-In . SVG Version: 6.00 Build 0)  -->
<svg version="1.1" id="Capa_1" xmlns="http://www.w3.org/2000/svg" xmlns:xlink="http://www.w3.org/1999/xlink" x="0px" y="0px"
	 viewBox="0 0 512 512" style="enable-background:new 0 0 512 512;" xml:space="preserve">
<rect x="110" y="10" style="fill:#E6EFFF;" width="372" height="186"/>
<rect x="70" y="50" style="fill:#85E374;" width="372" height="146"/>
<rect x="30" y="90" style="fill:#E6EFFF;" width="372" height="106"/>
<path style="fill:#FEA832;" d="M502,216v266c0,11.05-8.95,20-20,20H30c-11.05,0-20-8.95-20-20V216c0-11.05,8.95-20,20-20h40v-20
	c0-11.05,8.95-20,20-20h126c11.05,0,20,8.95,20,20v20c11.479,0,234.658,0,246,0C493.05,196,502,204.95,502,216z"/>
<path style="fill:#E6EFFF;" d="M442,356v80H216v-80H442z"/>
<path d="M400,405.788c6.184,1.249,11.99-3.419,11.99-9.788c0-5.53-4.452-9.99-9.99-9.99c-5.53,0-9.99,4.452-9.99,9.99
	C392.01,400.798,395.375,404.854,400,405.788z"/>
<path d="M492,187.72V10c0-5.522-4.478-10-10-10H110c-5.522,0-10,4.478-10,10v30H70c-5.522,0-10,4.478-10,10v30H30
	c-5.522,0-10,4.478-10,10v97.72C8.361,191.848,0,202.964,0,216v266c0,16.542,13.458,30,30,30h452c16.542,0,30-13.458,30-30V216
	C512,202.964,503.639,191.848,492,187.72z M120,20h352v166h-20V50c0-5.522-4.478-10-10-10H120V20z M80,60h352v126h-20V90
	c0-5.522-4.478-10-10-10H80V60z M392,100v86H246v-10c0-16.542-13.458-30-30-30H90c-16.542,0-30,13.458-30,30v10H40v-86H392z
	 M492,482c0,5.514-4.486,10-10,10H30c-5.514,0-10-4.486-10-10V216c0-5.514,4.486-10,10-10h40c5.522,0,10-4.478,10-10v-20
	c0-5.514,4.486-10,10-10h126c5.514,0,10,4.486,10,10v20c0,5.522,4.478,10,10,10c7.308,0,238.722,0,246,0c5.514,0,10,4.486,10,10V482
	z"/>
<path d="M442,346H216c-5.522,0-10,4.478-10,10v80c0,5.522,4.478,10,10,10h226c5.522,0,10-4.478,10-10v-80
	C452,350.478,447.522,346,442,346z M432,426H226v-60h206V426z"/>
<path d="M256,406h106c5.522,0,10-4.478,10-10s-4.478-10-10-10H256c-5.522,0-10,4.478-10,10S250.478,406,256,406z"/>
<g>
</g>
<g>
</g>
<g>
</g>
<g>
</g>
<g>
</g>
<g>
</g>
<g>
</g>
<g>
</g>
<g>
</g>
<g>
</g>
<g>
</g>
<g>
</g>
<g>
</g>
<g>
</g>
<g>
</g>
</svg>
