<?xml version="1.0" encoding="UTF-8" standalone="no"?>
<!-- Created with Inkscape (http://www.inkscape.org/) -->

<svg
   xmlns:dc="http://purl.org/dc/elements/1.1/"
   xmlns:cc="http://creativecommons.org/ns#"
   xmlns:rdf="http://www.w3.org/1999/02/22-rdf-syntax-ns#"
   xmlns:svg="http://www.w3.org/2000/svg"
   xmlns="http://www.w3.org/2000/svg"
   xmlns:sodipodi="http://sodipodi.sourceforge.net/DTD/sodipodi-0.dtd"
   xmlns:inkscape="http://www.inkscape.org/namespaces/inkscape"
   version="1.1"
   id="svg2"
   xml:space="preserve"
   width="138.668"
   height="146.55467"
   viewBox="0 0 138.668 146.55467"
   sodipodi:docname="logo.white.svg"
   inkscape:version="0.92.4 5da689c313, 2019-01-14"><metadata
     id="metadata8"><rdf:RDF><cc:Work
         rdf:about=""><dc:format>image/svg+xml</dc:format><dc:type
           rdf:resource="http://purl.org/dc/dcmitype/StillImage" /><dc:title></dc:title></cc:Work></rdf:RDF></metadata><defs
     id="defs6" /><sodipodi:namedview
     pagecolor="#ffffff"
     bordercolor="#666666"
     borderopacity="1"
     objecttolerance="10"
     gridtolerance="10"
     guidetolerance="10"
     inkscape:pageopacity="0"
     inkscape:pageshadow="2"
     inkscape:window-width="1920"
     inkscape:window-height="1080"
     id="namedview4"
     showgrid="false"
     fit-margin-top="0"
     fit-margin-left="0"
     fit-margin-right="0"
     fit-margin-bottom="0"
     inkscape:zoom="1.2895667"
     inkscape:cx="382.27759"
     inkscape:cy="178.244"
     inkscape:window-x="0"
     inkscape:window-y="0"
     inkscape:window-maximized="0"
     inkscape:current-layer="g10" /><g
     id="g10"
     inkscape:groupmode="layer"
     inkscape:label="ink_ext_XXXXXX"
     transform="matrix(1.3333333,0,0,-1.3333333,-154.3154,141.90194)"><path
       inkscape:connector-curvature="0"
       id="path14"
       style="fill:#ffffff;fill-opacity:1;fill-rule:nonzero;stroke:none;stroke-width:0.1"
       d="m 135.95925,13.569056 v 40.0312 l 14.8578,0.0032 v 28.8875 h 26.4113 v -28.8907 h 6.6039 v -16.5058 h 4.127 v 42.0945 h 23.525 v -8e-4 -5.7773 h -17.7481 v -42.0957 h -15.682 v 16.5078 h -6.6024 v 28.8918 h -14.8578 v -28.8918 h -14.8562 v -34.2539 h -5.7785 v 0" /><path
       inkscape:connector-curvature="0"
       id="path16"
       style="fill:#ffffff;fill-opacity:1;fill-rule:nonzero;stroke:none;stroke-width:0.1"
       d="m 121.51428,54.426456 c 0.002,12.7742 5.16997,24.3106 13.53867,32.6856 8.3746,8.3679 19.9109,13.535404 32.684,13.537404 8.4484,-0.002 16.3488,-2.274004 23.1578,-6.225704 l 8.2117,1.4707 c -8.7199,6.606004 -19.5844,10.531004 -31.3695,10.532004 -28.7199,-0.001 -51.99884,-23.280504 -52.0004,-52.000004 0.001,-19.2461 10.4625,-36.0332 26.0012,-45.0254 v 6.8086 c -2.3977,1.6348 -4.6367,3.4863 -6.6848,5.5332 -8.3687,8.3731 -13.5371,19.9102 -13.53867,32.6836 z m 91.95937,24.7617 h -6.7144 c 4.5535,-7.1593 7.1996,-15.6406 7.2003,-24.7617 -0.001,-12.7734 -5.1703,-24.3105 -13.539,-32.6836 -8.3738,-8.3691 -19.9106,-13.5371 -32.6836,-13.539 -3.2555,0.0019 -6.4285,0.3418 -9.4914,0.9804 v -5.87692 c 3.0789,-0.56875 6.2476,-0.88086 9.4914,-0.88086 28.7207,0.002 51.9996,23.27928 52.0006,51.99998 -0.001,8.9649 -2.27,17.3992 -6.2639,24.7617" /><path
       inkscape:connector-curvature="0"
       id="path18"
       style="fill:#ffffff;fill-opacity:1;fill-rule:nonzero;stroke:none;stroke-width:0.1"
       d="m 162.23495,6.016316 v -9.50586 l -6.6035,4.75391 -6.6035,4.75195 6.6035,4.75194 6.6035,4.7539 v -9.50584" /><path
       inkscape:connector-curvature="0"
       id="path20"
       style="fill:#ffffff;fill-opacity:1;fill-rule:nonzero;stroke:none;stroke-width:0.1"
       d="m 191.88185,97.409456 6.5086,6.929004 1.559,-7.985004 1.559,-7.9856 -8.0672,1.0574 -8.0668,1.0559 6.5074,6.9283" /></g></svg>