<?xml version="1.0" encoding="UTF-8" standalone="no"?>
<!-- Generator: Adobe Illustrator 16.0.0, SVG Export Plug-In . SVG Version: 6.00 Build 0)  -->

<svg
   xmlns:dc="http://purl.org/dc/elements/1.1/"
   xmlns:cc="http://creativecommons.org/ns#"
   xmlns:rdf="http://www.w3.org/1999/02/22-rdf-syntax-ns#"
   xmlns:svg="http://www.w3.org/2000/svg"
   xmlns="http://www.w3.org/2000/svg"
   xmlns:sodipodi="http://sodipodi.sourceforge.net/DTD/sodipodi-0.dtd"
   xmlns:inkscape="http://www.inkscape.org/namespaces/inkscape"
   version="1.1"
   id="Capa_1"
   x="0px"
   y="0px"
   width="100.787px"
   height="100.787px"
   viewBox="0 0 100.787 100.787"
   style="enable-background:new 0 0 100.787 100.787;"
   xml:space="preserve"
   sodipodi:docname="steam.svg"
   inkscape:version="0.92.3 (2405546, 2018-03-11)"><metadata
   id="metadata45"><rdf:RDF><cc:Work
       rdf:about=""><dc:format>image/svg+xml</dc:format><dc:type
         rdf:resource="http://purl.org/dc/dcmitype/StillImage" /><dc:title></dc:title></cc:Work></rdf:RDF></metadata><defs
   id="defs43" /><sodipodi:namedview
   pagecolor="#ffffff"
   bordercolor="#666666"
   borderopacity="1"
   objecttolerance="10"
   gridtolerance="10"
   guidetolerance="10"
   inkscape:pageopacity="0"
   inkscape:pageshadow="2"
   inkscape:window-width="1920"
   inkscape:window-height="1060"
   id="namedview41"
   showgrid="false"
   showguides="false"
   inkscape:zoom="4.6831435"
   inkscape:cx="39.967527"
   inkscape:cy="49.254542"
   inkscape:window-x="0"
   inkscape:window-y="0"
   inkscape:window-maximized="1"
   inkscape:current-layer="g6" />
<g
   id="g8">
	<g
   id="g6">
		<path
   d="M99.288,94.894H3v-90.5c0-0.829-0.672-1.5-1.5-1.5S0,3.564,0,4.394v92c0,0.829,0.672,1.5,1.5,1.5h97.787    c0.828,0,1.5-0.671,1.5-1.5S100.116,94.894,99.288,94.894z"
   id="path2" />
		<path
   d="m 99.061,11.061 -16,14.333 L 67.727,29.061 50.967936,28.426631 31.061,35.727 6.061,21.061 v 24.866003 l 93,-6.200003 z"
   id="polygon4"
   inkscape:connector-curvature="0"
   sodipodi:nodetypes="ccccccccc" />
	<path
   d="m 6.0609998,79.927003 16.0000002,-14.333 15.334,-3.667 16.759064,0.634369 19.906936,-7.300369 25,14.666 V 45.061 L 6.0609998,51.261003 Z"
   id="polygon4-7"
   inkscape:connector-curvature="0"
   sodipodi:nodetypes="ccccccccc" /></g>
</g>
<g
   id="g10">
</g>
<g
   id="g12">
</g>
<g
   id="g14">
</g>
<g
   id="g16">
</g>
<g
   id="g18">
</g>
<g
   id="g20">
</g>
<g
   id="g22">
</g>
<g
   id="g24">
</g>
<g
   id="g26">
</g>
<g
   id="g28">
</g>
<g
   id="g30">
</g>
<g
   id="g32">
</g>
<g
   id="g34">
</g>
<g
   id="g36">
</g>
<g
   id="g38">
</g>
</svg>